# xmcd
# 
# Track frame offsets:
#     150
#     18972
#     37735
# 
# Disc length: 594
# 
# Revision: 2
# Processed by: cddbd v1.5.2PL0 Copyright (c) Steve Scherf et al.
# Submitted via: fre:ac v1.0.17
# 
DISCID=13025003
DTITLE=ムック - 約束 [期間限定生産]
DYEAR=2010
DGENRE=Rock
TTITLE0=約束
TTITLE1=約束 Original Karaoke
TTITLE2=約束 -TV edit-
EXTD=
EXTT0=
EXTT1=
EXTT2=
PLAYORDER=
